<svg xmlns:dc="http://purl.org/dc/elements/1.1/" xmlns:cc="http://creativecommons.org/ns#" xmlns:rdf="http://www.w3.org/1999/02/22-rdf-syntax-ns#" xmlns:svg="http://www.w3.org/2000/svg" xmlns="http://www.w3.org/2000/svg" xmlns:sodipodi="http://sodipodi.sourceforge.net/DTD/sodipodi-0.dtd" xmlns:inkscape="http://www.inkscape.org/namespaces/inkscape" version="1.1" x="0px" y="0px" viewBox="0 0 100 100"><g transform="translate(0,-952.36218)"><path d="m 13.999999,972.36216 c -2.2091,0 -4.0000005,1.79079 -4.0000005,4 0,2.2092 1.7909005,4 4.0000005,4 l 72.000002,0 c 2.209101,0 4,-1.7908 4,-4 0,-2.20921 -1.790899,-4 -4,-4 z m 0,26.00005 c -2.2091,0 -4.0000005,1.79069 -4.0000005,3.99999 0,2.2092 1.7909005,4 4.0000005,4 l 72.000002,0 c 2.209101,0 4,-1.7908 4,-4 0,-2.2093 -1.790899,-3.99999 -4,-3.99999 z m 0,25.99999 c -2.2091,0 -4.0000005,1.7908 -4.0000005,4 0,2.2092 1.7909005,4 4.0000005,4 l 72.000002,0 c 2.209101,0 4,-1.7908 4,-4 0,-2.2092 -1.790899,-4 -4,-4 z" style="text-indent:0;text-transform:none;direction:ltr;block-progression:tb;baseline-shift:baseline;color:#000000;enable-background:accumulate;" fill="#000000" fill-opacity="1" stroke="none" marker="none" visibility="visible" display="inline" overflow="visible"></path></g></svg>